<svg id="Layer_1" data-name="Layer 1" xmlns="http://www.w3.org/2000/svg" viewBox="0 0 1012.95 242.04"><defs><style>.cls-1{fill:#fff;}</style></defs><path d="M397,179.35l-8.95,10L372.78,176a50.11,50.11,0,0,1-24.66,6.32c-31.41,0-50.2-25-50.2-54.9s18.79-54.9,50.2-54.9,50.2,25,50.2,54.9c0,14.38-4.4,30.24-14.82,40.22Zm-47.7-23.78,8.8-10.13,12.77,11.16c6.61-7.93,9.1-18.64,9.1-29.21,0-20.11-9.39-39.93-31.85-39.93s-31.85,19.82-31.85,39.93,9.39,39.92,31.85,39.92a27.71,27.71,0,0,0,11.74-2.49Z"/><path d="M413.89,75h18.35v61.07c0,14.09.88,30.38,24.66,30.38s24.66-16.29,24.66-30.38V75h18.35v67.09c0,26.86-17.18,40.22-43,40.22s-43-13.36-43-40.22Z"/><path d="M549.08,75H568.6L609,179.79H589.3l-9.83-27.74H537.63l-9.83,27.74H508.86Zm-6.46,63.12h32L558.92,93h-.44Z"/><path d="M618.22,75H637.6l47.85,77.21h.3V75h17.46V179.79H683.84l-47.71-77.06h-.44v77.06H618.22Z"/><path d="M715,75h84.85V90.84H766.48v88.95H748.14V90.84H715Z"/><path d="M812,75h75.45V90.84h-57.1v27.45h52.84v15H830.34v30.68h58.13v15.85H812Z"/><path d="M904.18,75H930L958.93,157h.29L987.41,75H1013V179.79H995.48V98.91h-.29l-29.07,80.88H951L921.94,98.91h-.3v80.88H904.18Z"/><path d="M204.12,2H32.26A32.29,32.29,0,0,0,0,34.34V209.13a34.94,34.94,0,0,0,35,35H204.12a34.94,34.94,0,0,0,35-35V37A35,35,0,0,0,204.12,2Z"/><path class="cls-1" d="M138.71,195.14H98.89a49.52,49.52,0,0,1-49.47-49.47v-47A49.52,49.52,0,0,1,98.89,49.18h39.82a49.52,49.52,0,0,1,49.47,49.47v47A49.52,49.52,0,0,1,138.71,195.14ZM98.89,72.59A26.09,26.09,0,0,0,72.83,98.65v47a26.09,26.09,0,0,0,26.06,26.06h39.82a26.09,26.09,0,0,0,26.06-26.06v-47a26.09,26.09,0,0,0-26.06-26.06Z"/><rect class="cls-1" x="150.8" y="131.13" width="23.5" height="72.55" rx="2.75" transform="translate(-69.57 191.21) rotate(-51.7)"/></svg>